<?xml version="1.0" standalone="no"?>
<!DOCTYPE svg PUBLIC "-//W3C//DTD SVG 20010904//EN"
 "http://www.w3.org/TR/2001/REC-SVG-20010904/DTD/svg10.dtd">
<svg version="1.0" xmlns="http://www.w3.org/2000/svg"
 width="200.000000pt" height="200.000000pt" viewBox="0 0 200.000000 200.000000"
 preserveAspectRatio="xMidYMid meet">

<g transform="translate(0.000000,200.000000) scale(0.100000,-0.100000)"
fill="#000000" stroke="none">
<path d="M204 1780 c-39 -16 -72 -67 -79 -122 -3 -29 -5 -312 -3 -628 l3 -575
873 -3 872 -2 0 630 0 630 -34 38 -34 37 -789 2 c-433 1 -797 -2 -809 -7z
m1536 -660 l0 -540 -740 0 -740 0 0 540 0 540 740 0 740 0 0 -540z"/>
<path d="M810 1550 c-15 -15 -20 -33 -20 -70 l0 -50 -45 0 c-45 0 -45 0 -45
-35 l0 -35 105 0 105 0 0 35 c0 35 0 35 -46 35 l-45 0 3 53 3 52 85 0 85 0 6
-39 c8 -48 20 -56 89 -56 69 0 81 8 89 56 l6 39 90 0 90 0 3 -47 3 -48 -50 0
c-47 0 -51 -2 -57 -27 -5 -17 -1 -37 9 -56 15 -25 17 -67 17 -326 0 -332 0
-331 69 -352 31 -9 43 -8 69 5 60 31 62 44 62 369 0 195 4 297 11 304 6 6 9
26 7 44 -3 33 -5 34 -53 39 l-50 5 -3 53 c-4 65 -17 72 -130 72 -91 0 -119
-14 -124 -63 -3 -32 -3 -32 -58 -32 -55 0 -55 0 -58 32 -5 49 -33 63 -124 63
-65 0 -81 -3 -98 -20z m648 -499 c2 -315 0 -331 -48 -346 -30 -10 -75 12 -89
41 -12 28 -16 585 -4 598 4 4 37 6 73 4 l65 -3 3 -294z"/>
<path d="M1340 976 c0 -182 2 -217 16 -230 8 -9 22 -16 29 -16 7 0 21 7 29 16
14 13 16 48 16 230 l0 214 -45 0 -45 0 0 -214z"/>
<path d="M720 1244 l0 -86 -105 -175 c-116 -193 -125 -224 -80 -268 l24 -25
241 0 c154 0 249 4 262 11 28 15 50 72 39 101 -5 13 -54 99 -110 191 l-101
168 0 85 0 84 -85 0 -85 0 0 -86z m238 -310 c27 -18 30 -69 5 -96 -34 -38
-113 -8 -113 44 0 28 38 68 65 68 11 0 31 -7 43 -16z m-215 -51 c23 -22 22
-78 -3 -103 -30 -30 -83 -27 -109 6 -29 36 -26 60 9 96 25 24 36 29 58 23 15
-3 35 -14 45 -22z"/>
<path d="M890 905 c-6 -8 -10 -22 -8 -32 4 -25 48 -30 65 -8 26 37 -27 76 -57
40z"/>
<path d="M652 868 c-28 -28 -3 -88 37 -88 21 0 51 30 51 52 0 36 -62 62 -88
36z"/>
<path d="M70 395 c0 -62 48 -133 112 -166 36 -18 70 -19 815 -19 733 0 780 1
818 19 50 22 91 69 106 121 23 76 106 70 -926 70 l-925 0 0 -25z m870 -80 c0
-8 -7 -15 -15 -15 -8 0 -15 7 -15 15 0 8 7 15 15 15 8 0 15 -7 15 -15z m78 -3
c2 -7 -6 -12 -17 -12 -21 0 -27 11 -14 24 9 9 26 2 31 -12z m72 3 c0 -8 -7
-15 -15 -15 -8 0 -15 7 -15 15 0 8 7 15 15 15 8 0 15 -7 15 -15z"/>
</g>
</svg>
